<svg version="1.0" xmlns="http://www.w3.org/2000/svg" width="172.000000pt" height="120.000000pt" viewBox="0 0 172.000000 120.000000" preserveAspectRatio="xMidYMid meet">

<g transform="translate(0.000000,120.000000) scale(0.100000,-0.100000)" fill="#ff0000" stroke="none">
<path d="M263 1006 c-63 -20 -97 -50 -129 -111 -21 -41 -35 -55 -50 -55 -24 0 -34 -17 -34 -56 0 -17 6 -24 20 -24 11 0 20 -5 20 -10 0 -6 -18 -99 -40 -206 -22 -108 -40 -200 -40 -205 0 -5 30 -9 68 -9 l67 0 44 215 44 215 54 0 c55 0 56 0 67 53 6 27 6 27 -49 27 -30 0 -55 2 -55 5 0 3 6 21 14 40 20 46 47 58 112 50 49 -6 54 -5 54 13 0 11 3 27 6 35 3 8 -2 17 -11 21 -37 14 -122 15 -162 2z" fill="#ff0000"/>
<path d="M1575 998 c-2 -7 -10 -44 -17 -83 l-14 -70 -64 -5 c-36 -3 -80 -14 -98 -23 -121 -65 -207 -259 -153 -344 12 -19 31 -34 50 -38 42 -9 131 19 161 50 32 34 39 32 30 -10 l-8 -35 69 0 c38 0 69 2 69 4 0 3 25 125 55 271 30 147 55 273 55 281 0 19 -129 20 -135 2z" fill="#ff0000"/>
<path d="M508 836 c-55 -15 -121 -58 -149 -97 -56 -79 -75 -180 -44 -238 33 -64 165 -86 260 -43 132 60 212 221 160 321 -28 54 -138 82 -227 57z" fill="#ff0000"/>
<path d="M968 837 c-47 -14 -108 -53 -141 -91 -37 -42 -67 -120 -67 -172 0 -90 59 -138 170 -138 109 1 211 67 261 170 28 59 31 140 6 178 -35 52 -142 77 -229 53z" fill="#ff0000"/>
<path d="M860 299 c14 -12 34 -28 45 -36 20 -14 19 -15 -10 -39 -43 -35 -143 -82 -205 -95 -85 -18 -205 -7 -267 24 -64 33 -115 77 -144 123 -33 55 -34 32 -2 -38 70 -149 198 -228 370 -228 112 0 248 44 330 106 24 18 34 22 38 12 3 -7 11 -31 19 -53 9 -26 16 -35 20 -25 5 14 56 254 56 265 0 3 -62 5 -137 5 l-138 -1 25 -20z" fill="#ff0000"/>
</g>
</svg>